<svg version="1.1" xmlns="http://www.w3.org/2000/svg" xmlns:xlink="http://www.w3.org/1999/xlink" width="309.5" height="156.4"><defs><linearGradient id="OudfvCxFteyE" x1="1773.5000014305115px" x2="576.5px" y1="1028.4000007152558px" y2="433.00000071525574px" gradientUnits="userSpaceOnUse"><stop offset="0" stop-color="rgb(211,211,211)" stop-opacity="1"/><stop offset="1" stop-color="rgb(29,122,218)" stop-opacity="1"/></linearGradient><linearGradient id="ATITaEbxZMQS" x1="1773.5000014305115px" x2="576.5px" y1="1028.4000007152558px" y2="300px" gradientUnits="userSpaceOnUse"><stop offset="0" stop-color="rgb(211,211,211)" stop-opacity="1"/><stop offset="1" stop-color="rgb(29,122,218)" stop-opacity="1"/></linearGradient><linearGradient id="lkZeOdRTdLLa" x1="1773.5000014305115px" x2="1179.5000007152557px" y1="1028.4000007152558px" y2="965.0000035762787px" gradientUnits="userSpaceOnUse"><stop offset="0" stop-color="rgb(211,211,211)" stop-opacity="1"/><stop offset="1" stop-color="rgb(29,122,218)" stop-opacity="1"/></linearGradient><linearGradient id="KbRHUgFqamgG" x1="1773.5000014305115px" x2="576.5px" y1="1028.4000007152558px" y2="832.000002861023px" gradientUnits="userSpaceOnUse"><stop offset="0" stop-color="rgb(211,211,211)" stop-opacity="1"/><stop offset="1" stop-color="rgb(29,122,218)" stop-opacity="1"/></linearGradient><linearGradient id="SgHtkdRJnpwZ" x1="1773.5000014305115px" x2="1179.5000007152557px" y1="1028.4000007152558px" y2="699.0000021457672px" gradientUnits="userSpaceOnUse"><stop offset="0" stop-color="rgb(211,211,211)" stop-opacity="1"/><stop offset="1" stop-color="rgb(29,122,218)" stop-opacity="1"/></linearGradient><linearGradient id="sQWfzrbyTbTx" x1="1773.5000014305115px" x2="1179.5000007152557px" y1="1028.4000007152558px" y2="433.00000071525574px" gradientUnits="userSpaceOnUse"><stop offset="0" stop-color="rgb(211,211,211)" stop-opacity="1"/><stop offset="1" stop-color="rgb(29,122,218)" stop-opacity="1"/></linearGradient><linearGradient id="xmuMgxSAgEqQ" x1="1773.5000014305115px" x2="1179.5000007152557px" y1="1028.4000007152558px" y2="300px" gradientUnits="userSpaceOnUse"><stop offset="0" stop-color="rgb(211,211,211)" stop-opacity="1"/><stop offset="1" stop-color="rgb(29,122,218)" stop-opacity="1"/></linearGradient><linearGradient id="JfShVCbAVBnS" x1="1773.5000014305115px" x2="576.5px" y1="1028.4000007152558px" y2="965.0000035762787px" gradientUnits="userSpaceOnUse"><stop offset="0" stop-color="rgb(211,211,211)" stop-opacity="1"/><stop offset="1" stop-color="rgb(29,122,218)" stop-opacity="1"/></linearGradient><linearGradient id="TxqzQashrrMO" x1="1773.5000014305115px" x2="576.5px" y1="1028.4000007152558px" y2="699.0000021457672px" gradientUnits="userSpaceOnUse"><stop offset="0" stop-color="rgb(211,211,211)" stop-opacity="1"/><stop offset="1" stop-color="rgb(29,122,218)" stop-opacity="1"/></linearGradient><linearGradient id="dZACDnXFWndo" x1="1773.5000014305115px" x2="1179.5000007152557px" y1="500px" y2="566.0000014305115px" gradientUnits="userSpaceOnUse"><stop offset="0" stop-color="rgb(211,211,211)" stop-opacity="1"/><stop offset="1" stop-color="rgb(29,122,218)" stop-opacity="1"/></linearGradient></defs><g transform="translate(28.1,6.320000000000005) scale(0.1,0.1)"><path fill="rgb(244,236,255)" stroke="rgb(255,255,255)" paint-order="fill stroke markers" d=" M 1266.1000007152556 -61.200000000000045 L 2803.2000014305113 -61.200000000000045 L 2803.2000014305113 -61.200000000000045 A 8 8 0 0 1 2811.2000014305113 -53.200000000000045 L 2811.2000014305113 1490.6000007152559 L 2811.2000014305113 1490.6000007152559 A 8 8 0 0 1 2803.2000014305113 1498.6000007152559 L -271 1498.6000007152559 L -271 1498.6000007152559 A 8 8 0 0 1 -279 1490.6000007152559 L -279 -53.200000000000045 L -279 -53.200000000000045 A 8 8 0 0 1 -271 -61.200000000000045 L 1266.1000007152556 -61.200000000000045 Z" fill-opacity="1" stroke-opacity="1" stroke-miterlimit="10" stroke-width="2"/><text fill="rgb(0,0,0)" stroke="none" font-family="Avenir, Helvetica, Arial, sans-serif" font-size="32px" font-style="normal" font-weight="bold" text-decoration="normal" x="1266.1000007152556" y="13.799999999999955" text-anchor="middle" dominant-baseline="text-after-edge" fill-opacity="1">.</text><path fill="rgb(255,255,255)" stroke="rgb(211,211,211)" paint-order="fill stroke markers" d=" M 601.5000003576279 157.5 L 1272.5000007152557 157.5 L 1272.5000007152557 157.5 A 8 8 0 0 1 1280.5000007152557 165.5 L 1280.5000007152557 1099.5000035762787 L 1280.5000007152557 1099.5000035762787 A 8 8 0 0 1 1272.5000007152557 1107.5000035762787 L -69.5 1107.5000035762787 L -69.5 1107.5000035762787 A 8 8 0 0 1 -77.5 1099.5000035762787 L -77.5 165.5 L -77.5 165.5 A 8 8 0 0 1 -69.5 157.5 L 601.5000003576279 157.5 Z" fill-opacity="1" stroke-opacity="1" stroke-miterlimit="10"/><text fill="rgb(0,0,0)" stroke="none" font-family="Avenir, Helvetica, Arial, sans-serif" font-size="32px" font-style="normal" font-weight="bold" text-decoration="normal" x="601.5000003576279" y="232.5" text-anchor="middle" dominant-baseline="text-after-edge" fill-opacity="1">variables.tf</text><path fill="rgb(255,255,255)" stroke="rgb(211,211,211)" paint-order="fill stroke markers" d=" M 2106.0000014305115 140.29999999999995 L 2601.7000014305113 140.29999999999995 L 2601.7000014305113 140.29999999999995 A 8 8 0 0 1 2609.7000014305113 148.29999999999995 L 2609.7000014305113 1289.1000007152559 L 2609.7000014305113 1289.1000007152559 A 8 8 0 0 1 2601.7000014305113 1297.1000007152559 L 1610.3000014305117 1297.1000007152559 L 1610.3000014305117 1297.1000007152559 A 8 8 0 0 1 1602.3000014305117 1289.1000007152559 L 1602.3000014305117 148.29999999999995 L 1602.3000014305117 148.29999999999995 A 8 8 0 0 1 1610.3000014305117 140.29999999999995 L 2106.0000014305115 140.29999999999995 Z" fill-opacity="1" stroke-opacity="1" stroke-miterlimit="10"/><text fill="rgb(0,0,0)" stroke="none" font-family="Avenir, Helvetica, Arial, sans-serif" font-size="32px" font-style="normal" font-weight="bold" text-decoration="normal" x="2106.0000014305115" y="215.29999999999995" text-anchor="middle" dominant-baseline="text-after-edge" fill-opacity="1">main.tf</text><path fill="rgb(255,255,255)" stroke="rgb(0,0,0)" paint-order="fill stroke markers" d=" M 2106.0000014305115 289.3 L 2498.2000014305113 289.3 L 2498.2000014305113 289.3 A 8 8 0 0 1 2506.2000014305113 297.3 L 2506.2000014305113 657.2 L 2506.2000014305113 657.2 A 8 8 0 0 1 2498.2000014305113 665.2 L 1713.8000014305114 665.2 L 1713.8000014305114 665.2 A 8 8 0 0 1 1705.8000014305114 657.2 L 1705.8000014305114 297.3 L 1705.8000014305114 297.3 A 8 8 0 0 1 1713.8000014305114 289.3 L 2106.0000014305115 289.3 Z" fill-opacity="1" stroke-opacity="1" stroke-miterlimit="10" stroke-width="5"/><rect fill="rgb(255,255,255)" stroke="none" x="1891.5000014305115" y="240.3" width="429" height="96" fill-opacity="1"/><text fill="rgb(0,0,0)" stroke="none" font-family="Avenir, Helvetica, Arial, sans-serif" font-size="32px" font-style="normal" font-weight="bold" text-decoration="normal" x="2106.0000014305115" y="304.3" text-anchor="middle" dominant-baseline="text-after-edge" fill-opacity="1">aws_iam_account_alias</text><path fill="rgb(255,255,255)" stroke="rgb(0,0,0)" paint-order="fill stroke markers" d=" M 2106.0000014305115 817.7000007152558 L 2498.2000014305113 817.7000007152558 L 2498.2000014305113 817.7000007152558 A 8 8 0 0 1 2506.2000014305113 825.7000007152558 L 2506.2000014305113 1185.6000007152559 L 2506.2000014305113 1185.6000007152559 A 8 8 0 0 1 2498.2000014305113 1193.6000007152559 L 1713.8000014305114 1193.6000007152559 L 1713.8000014305114 1193.6000007152559 A 8 8 0 0 1 1705.8000014305114 1185.6000007152559 L 1705.8000014305114 825.7000007152558 L 1705.8000014305114 825.7000007152558 A 8 8 0 0 1 1713.8000014305114 817.7000007152558 L 2106.0000014305115 817.7000007152558 Z" fill-opacity="1" stroke-opacity="1" stroke-miterlimit="10" stroke-width="5"/><rect fill="rgb(255,255,255)" stroke="none" x="1798.5000014305115" y="768.7000007152558" width="615" height="96" fill-opacity="1"/><text fill="rgb(0,0,0)" stroke="none" font-family="Avenir, Helvetica, Arial, sans-serif" font-size="32px" font-style="normal" font-weight="bold" text-decoration="normal" x="2106.0000014305115" y="832.7000007152558" text-anchor="middle" dominant-baseline="text-after-edge" fill-opacity="1">aws_iam_account_password_policy</text><path fill="rgb(255,255,255)" stroke="rgb(0,0,0)" paint-order="fill stroke markers" d=" M 2106.0000014305115 405 L 2428.0000014305115 405 L 2428.0000014305115 405 A 8 8 0 0 1 2436.0000014305115 413 L 2436.0000014305115 587 L 2436.0000014305115 587 A 8 8 0 0 1 2428.0000014305115 595 L 1784.0000014305115 595 L 1784.0000014305115 595 A 8 8 0 0 1 1776.0000014305115 587 L 1776.0000014305115 413 L 1776.0000014305115 413 A 8 8 0 0 1 1784.0000014305115 405 L 2106.0000014305115 405 Z" fill-opacity="1" stroke-opacity="1" stroke-miterlimit="10" stroke-width="5"/><rect fill="rgb(255,255,255)" stroke="none" x="2016.0000014305115" y="356" width="180" height="96" fill-opacity="1"/><text fill="rgb(0,0,0)" stroke="none" font-family="Avenir, Helvetica, Arial, sans-serif" font-size="32px" font-style="normal" font-weight="bold" text-decoration="normal" x="2106.0000014305115" y="420" text-anchor="middle" dominant-baseline="text-after-edge" fill-opacity="1">default</text><path fill="rgb(255,255,255)" stroke="rgb(0,0,0)" paint-order="fill stroke markers" d=" M 2106.0000014305115 933.4000007152558 L 2428.0000014305115 933.4000007152558 L 2428.0000014305115 933.4000007152558 A 8 8 0 0 1 2436.0000014305115 941.4000007152558 L 2436.0000014305115 1115.4000007152558 L 2436.0000014305115 1115.4000007152558 A 8 8 0 0 1 2428.0000014305115 1123.4000007152558 L 1784.0000014305115 1123.4000007152558 L 1784.0000014305115 1123.4000007152558 A 8 8 0 0 1 1776.0000014305115 1115.4000007152558 L 1776.0000014305115 941.4000007152558 L 1776.0000014305115 941.4000007152558 A 8 8 0 0 1 1784.0000014305115 933.4000007152558 L 2106.0000014305115 933.4000007152558 Z" fill-opacity="1" stroke-opacity="1" stroke-miterlimit="10" stroke-width="5"/><rect fill="rgb(255,255,255)" stroke="none" x="2016.0000014305115" y="884.4000007152558" width="180" height="96" fill-opacity="1"/><text fill="rgb(0,0,0)" stroke="none" font-family="Avenir, Helvetica, Arial, sans-serif" font-size="32px" font-style="normal" font-weight="bold" text-decoration="normal" x="2106.0000014305115" y="948.4000007152558" text-anchor="middle" dominant-baseline="text-after-edge" fill-opacity="1">default</text><path fill="none" stroke="url(#OudfvCxFteyE)" paint-order="fill stroke markers" d=" M 1773.5000014305115 1028.4000007152558 L 1175.0000007152557 1028.4000007152558 L 1175.0000007152557 433.00000071525574 L 576.5 433.00000071525574" stroke-linejoin="round" stroke-miterlimit="10" stroke-width="10"/><path fill="none" stroke="url(#ATITaEbxZMQS)" paint-order="fill stroke markers" d=" M 1773.5000014305115 1028.4000007152558 L 1175.0000007152557 1028.4000007152558 L 1175.0000007152557 300 L 576.5 300" stroke-linejoin="round" stroke-miterlimit="10" stroke-width="10"/><path fill="none" stroke="url(#lkZeOdRTdLLa)" paint-order="fill stroke markers" d=" M 1773.5000014305115 1028.4000007152558 L 1476.5000010728836 1028.4000007152558 L 1476.5000010728836 965.0000035762787 L 1179.5000007152557 965.0000035762787" stroke-linejoin="round" stroke-miterlimit="10" stroke-width="10"/><path fill="none" stroke="url(#KbRHUgFqamgG)" paint-order="fill stroke markers" d=" M 1773.5000014305115 1028.4000007152558 L 1175.0000007152557 1028.4000007152558 L 1175.0000007152557 832.000002861023 L 576.5 832.000002861023" stroke-linejoin="round" stroke-miterlimit="10" stroke-width="10"/><path fill="none" stroke="url(#SgHtkdRJnpwZ)" paint-order="fill stroke markers" d=" M 1773.5000014305115 1028.4000007152558 L 1476.5000010728836 1028.4000007152558 L 1476.5000010728836 699.0000021457672 L 1179.5000007152557 699.0000021457672" stroke-linejoin="round" stroke-miterlimit="10" stroke-width="10"/><path fill="none" stroke="url(#sQWfzrbyTbTx)" paint-order="fill stroke markers" d=" M 1773.5000014305115 1028.4000007152558 L 1476.5000010728836 1028.4000007152558 L 1476.5000010728836 433.00000071525574 L 1179.5000007152557 433.00000071525574" stroke-linejoin="round" stroke-miterlimit="10" stroke-width="10"/><path fill="none" stroke="url(#xmuMgxSAgEqQ)" paint-order="fill stroke markers" d=" M 1773.5000014305115 1028.4000007152558 L 1476.5000010728836 1028.4000007152558 L 1476.5000010728836 300 L 1179.5000007152557 300" stroke-linejoin="round" stroke-miterlimit="10" stroke-width="10"/><path fill="none" stroke="url(#JfShVCbAVBnS)" paint-order="fill stroke markers" d=" M 1773.5000014305115 1028.4000007152558 L 1175.0000007152557 1028.4000007152558 L 1175.0000007152557 965.0000035762787 L 576.5 965.0000035762787" stroke-linejoin="round" stroke-miterlimit="10" stroke-width="10"/><path fill="none" stroke="url(#TxqzQashrrMO)" paint-order="fill stroke markers" d=" M 1773.5000014305115 1028.4000007152558 L 1175.0000007152557 1028.4000007152558 L 1175.0000007152557 699.0000021457672 L 576.5 699.0000021457672" stroke-linejoin="round" stroke-miterlimit="10" stroke-width="10"/><path fill="none" stroke="url(#dZACDnXFWndo)" paint-order="fill stroke markers" d=" M 1773.5000014305115 500 L 1476.5000010728836 500 L 1476.5000010728836 566.0000014305115 L 1179.5000007152557 566.0000014305115" stroke-linejoin="round" stroke-miterlimit="10" stroke-width="10"/><path fill="rgb(225,240,255)" stroke="rgb(29,122,218)" paint-order="fill stroke markers" d=" M 300 261 L 566 261 L 566 261 A 8 8 0 0 1 574 269 L 574 331 L 574 331 A 8 8 0 0 1 566 339 L 34 339 L 34 339 A 8 8 0 0 1 26 331 L 26 269 L 26 269 A 8 8 0 0 1 34 261 L 300 261 Z" fill-opacity="1" stroke-opacity="1" stroke-miterlimit="10" stroke-width="5"/><text fill="rgb(0,0,0)" stroke="none" font-family="Avenir, Helvetica, Arial, sans-serif" font-size="32px" font-style="normal" font-weight="bold" text-decoration="normal" x="300" y="316" text-anchor="middle" dominant-baseline="text-after-edge" fill-opacity="1">password_reuse_prevention</text><path fill="rgb(225,240,255)" stroke="rgb(29,122,218)" paint-order="fill stroke markers" d=" M 903.0000007152557 261 L 1169.0000007152557 261 L 1169.0000007152557 261 A 8 8 0 0 1 1177.0000007152557 269 L 1177.0000007152557 331 L 1177.0000007152557 331 A 8 8 0 0 1 1169.0000007152557 339 L 637.0000007152557 339 L 637.0000007152557 339 A 8 8 0 0 1 629.0000007152557 331 L 629.0000007152557 269 L 629.0000007152557 269 A 8 8 0 0 1 637.0000007152557 261 L 903.0000007152557 261 Z" fill-opacity="1" stroke-opacity="1" stroke-miterlimit="10" stroke-width="5"/><text fill="rgb(0,0,0)" stroke="none" font-family="Avenir, Helvetica, Arial, sans-serif" font-size="32px" font-style="normal" font-weight="bold" text-decoration="normal" x="903.0000007152557" y="316" text-anchor="middle" dominant-baseline="text-after-edge" fill-opacity="1">max_password_age</text><path fill="rgb(225,240,255)" stroke="rgb(29,122,218)" paint-order="fill stroke markers" d=" M 300 394.00000071525574 L 566 394.00000071525574 L 566 394.00000071525574 A 8 8 0 0 1 574 402.00000071525574 L 574 464.00000071525574 L 574 464.00000071525574 A 8 8 0 0 1 566 472.00000071525574 L 34 472.00000071525574 L 34 472.00000071525574 A 8 8 0 0 1 26 464.00000071525574 L 26 402.00000071525574 L 26 402.00000071525574 A 8 8 0 0 1 34 394.00000071525574 L 300 394.00000071525574 Z" fill-opacity="1" stroke-opacity="1" stroke-miterlimit="10" stroke-width="5"/><text fill="rgb(0,0,0)" stroke="none" font-family="Avenir, Helvetica, Arial, sans-serif" font-size="32px" font-style="normal" font-weight="bold" text-decoration="normal" x="300" y="449.00000071525574" text-anchor="middle" dominant-baseline="text-after-edge" fill-opacity="1">allow_users_to_change_password</text><path fill="rgb(225,240,255)" stroke="rgb(29,122,218)" paint-order="fill stroke markers" d=" M 903.0000007152557 394.00000071525574 L 1169.0000007152557 394.00000071525574 L 1169.0000007152557 394.00000071525574 A 8 8 0 0 1 1177.0000007152557 402.00000071525574 L 1177.0000007152557 464.00000071525574 L 1177.0000007152557 464.00000071525574 A 8 8 0 0 1 1169.0000007152557 472.00000071525574 L 637.0000007152557 472.00000071525574 L 637.0000007152557 472.00000071525574 A 8 8 0 0 1 629.0000007152557 464.00000071525574 L 629.0000007152557 402.00000071525574 L 629.0000007152557 402.00000071525574 A 8 8 0 0 1 637.0000007152557 394.00000071525574 L 903.0000007152557 394.00000071525574 Z" fill-opacity="1" stroke-opacity="1" stroke-miterlimit="10" stroke-width="5"/><text fill="rgb(0,0,0)" stroke="none" font-family="Avenir, Helvetica, Arial, sans-serif" font-size="32px" font-style="normal" font-weight="bold" text-decoration="normal" x="903.0000007152557" y="449.00000071525574" text-anchor="middle" dominant-baseline="text-after-edge" fill-opacity="1">hard_expiry</text><path fill="rgb(225,240,255)" stroke="rgb(29,122,218)" paint-order="fill stroke markers" d=" M 300 527.0000014305115 L 566 527.0000014305115 L 566 527.0000014305115 A 8 8 0 0 1 574 535.0000014305115 L 574 597.0000014305115 L 574 597.0000014305115 A 8 8 0 0 1 566 605.0000014305115 L 34 605.0000014305115 L 34 605.0000014305115 A 8 8 0 0 1 26 597.0000014305115 L 26 535.0000014305115 L 26 535.0000014305115 A 8 8 0 0 1 34 527.0000014305115 L 300 527.0000014305115 Z" fill-opacity="1" stroke-opacity="1" stroke-miterlimit="10" stroke-width="5"/><text fill="rgb(0,0,0)" stroke="none" font-family="Avenir, Helvetica, Arial, sans-serif" font-size="32px" font-style="normal" font-weight="bold" text-decoration="normal" x="300" y="582.0000014305115" text-anchor="middle" dominant-baseline="text-after-edge" fill-opacity="1">create_account_alias</text><path fill="rgb(225,240,255)" stroke="rgb(29,122,218)" paint-order="fill stroke markers" d=" M 903.0000007152557 527.0000014305115 L 1169.0000007152557 527.0000014305115 L 1169.0000007152557 527.0000014305115 A 8 8 0 0 1 1177.0000007152557 535.0000014305115 L 1177.0000007152557 597.0000014305115 L 1177.0000007152557 597.0000014305115 A 8 8 0 0 1 1169.0000007152557 605.0000014305115 L 637.0000007152557 605.0000014305115 L 637.0000007152557 605.0000014305115 A 8 8 0 0 1 629.0000007152557 597.0000014305115 L 629.0000007152557 535.0000014305115 L 629.0000007152557 535.0000014305115 A 8 8 0 0 1 637.0000007152557 527.0000014305115 L 903.0000007152557 527.0000014305115 Z" fill-opacity="1" stroke-opacity="1" stroke-miterlimit="10" stroke-width="5"/><text fill="rgb(0,0,0)" stroke="none" font-family="Avenir, Helvetica, Arial, sans-serif" font-size="32px" font-style="normal" font-weight="bold" text-decoration="normal" x="903.0000007152557" y="582.0000014305115" text-anchor="middle" dominant-baseline="text-after-edge" fill-opacity="1">account_alias</text><path fill="rgb(225,240,255)" stroke="rgb(29,122,218)" paint-order="fill stroke markers" d=" M 300 660.0000021457672 L 566 660.0000021457672 L 566 660.0000021457672 A 8 8 0 0 1 574 668.0000021457672 L 574 730.0000021457672 L 574 730.0000021457672 A 8 8 0 0 1 566 738.0000021457672 L 34 738.0000021457672 L 34 738.0000021457672 A 8 8 0 0 1 26 730.0000021457672 L 26 668.0000021457672 L 26 668.0000021457672 A 8 8 0 0 1 34 660.0000021457672 L 300 660.0000021457672 Z" fill-opacity="1" stroke-opacity="1" stroke-miterlimit="10" stroke-width="5"/><text fill="rgb(0,0,0)" stroke="none" font-family="Avenir, Helvetica, Arial, sans-serif" font-size="32px" font-style="normal" font-weight="bold" text-decoration="normal" x="300" y="715.0000021457672" text-anchor="middle" dominant-baseline="text-after-edge" fill-opacity="1">require_symbols</text><path fill="rgb(225,240,255)" stroke="rgb(29,122,218)" paint-order="fill stroke markers" d=" M 903.0000007152557 660.0000021457672 L 1169.0000007152557 660.0000021457672 L 1169.0000007152557 660.0000021457672 A 8 8 0 0 1 1177.0000007152557 668.0000021457672 L 1177.0000007152557 730.0000021457672 L 1177.0000007152557 730.0000021457672 A 8 8 0 0 1 1169.0000007152557 738.0000021457672 L 637.0000007152557 738.0000021457672 L 637.0000007152557 738.0000021457672 A 8 8 0 0 1 629.0000007152557 730.0000021457672 L 629.0000007152557 668.0000021457672 L 629.0000007152557 668.0000021457672 A 8 8 0 0 1 637.0000007152557 660.0000021457672 L 903.0000007152557 660.0000021457672 Z" fill-opacity="1" stroke-opacity="1" stroke-miterlimit="10" stroke-width="5"/><text fill="rgb(0,0,0)" stroke="none" font-family="Avenir, Helvetica, Arial, sans-serif" font-size="32px" font-style="normal" font-weight="bold" text-decoration="normal" x="903.0000007152557" y="715.0000021457672" text-anchor="middle" dominant-baseline="text-after-edge" fill-opacity="1">require_uppercase_characters</text><path fill="rgb(225,240,255)" stroke="rgb(29,122,218)" paint-order="fill stroke markers" d=" M 300 793.000002861023 L 566 793.000002861023 L 566 793.000002861023 A 8 8 0 0 1 574 801.000002861023 L 574 863.000002861023 L 574 863.000002861023 A 8 8 0 0 1 566 871.000002861023 L 34 871.000002861023 L 34 871.000002861023 A 8 8 0 0 1 26 863.000002861023 L 26 801.000002861023 L 26 801.000002861023 A 8 8 0 0 1 34 793.000002861023 L 300 793.000002861023 Z" fill-opacity="1" stroke-opacity="1" stroke-miterlimit="10" stroke-width="5"/><text fill="rgb(0,0,0)" stroke="none" font-family="Avenir, Helvetica, Arial, sans-serif" font-size="32px" font-style="normal" font-weight="bold" text-decoration="normal" x="300" y="848.000002861023" text-anchor="middle" dominant-baseline="text-after-edge" fill-opacity="1">require_numbers</text><path fill="rgb(225,240,255)" stroke="rgb(29,122,218)" paint-order="fill stroke markers" d=" M 903.0000007152557 793.000002861023 L 1169.0000007152557 793.000002861023 L 1169.0000007152557 793.000002861023 A 8 8 0 0 1 1177.0000007152557 801.000002861023 L 1177.0000007152557 863.000002861023 L 1177.0000007152557 863.000002861023 A 8 8 0 0 1 1169.0000007152557 871.000002861023 L 637.0000007152557 871.000002861023 L 637.0000007152557 871.000002861023 A 8 8 0 0 1 629.0000007152557 863.000002861023 L 629.0000007152557 801.000002861023 L 629.0000007152557 801.000002861023 A 8 8 0 0 1 637.0000007152557 793.000002861023 L 903.0000007152557 793.000002861023 Z" fill-opacity="1" stroke-opacity="1" stroke-miterlimit="10" stroke-width="5"/><text fill="rgb(0,0,0)" stroke="none" font-family="Avenir, Helvetica, Arial, sans-serif" font-size="32px" font-style="normal" font-weight="bold" text-decoration="normal" x="903.0000007152557" y="848.000002861023" text-anchor="middle" dominant-baseline="text-after-edge" fill-opacity="1">create_account_password_policy</text><path fill="rgb(225,240,255)" stroke="rgb(29,122,218)" paint-order="fill stroke markers" d=" M 300 926.0000035762787 L 566 926.0000035762787 L 566 926.0000035762787 A 8 8 0 0 1 574 934.0000035762787 L 574 996.0000035762787 L 574 996.0000035762787 A 8 8 0 0 1 566 1004.0000035762787 L 34 1004.0000035762787 L 34 1004.0000035762787 A 8 8 0 0 1 26 996.0000035762787 L 26 934.0000035762787 L 26 934.0000035762787 A 8 8 0 0 1 34 926.0000035762787 L 300 926.0000035762787 Z" fill-opacity="1" stroke-opacity="1" stroke-miterlimit="10" stroke-width="5"/><text fill="rgb(0,0,0)" stroke="none" font-family="Avenir, Helvetica, Arial, sans-serif" font-size="32px" font-style="normal" font-weight="bold" text-decoration="normal" x="300" y="981.0000035762787" text-anchor="middle" dominant-baseline="text-after-edge" fill-opacity="1">minimum_password_length</text><path fill="rgb(225,240,255)" stroke="rgb(29,122,218)" paint-order="fill stroke markers" d=" M 903.0000007152557 926.0000035762787 L 1169.0000007152557 926.0000035762787 L 1169.0000007152557 926.0000035762787 A 8 8 0 0 1 1177.0000007152557 934.0000035762787 L 1177.0000007152557 996.0000035762787 L 1177.0000007152557 996.0000035762787 A 8 8 0 0 1 1169.0000007152557 1004.0000035762787 L 637.0000007152557 1004.0000035762787 L 637.0000007152557 1004.0000035762787 A 8 8 0 0 1 629.0000007152557 996.0000035762787 L 629.0000007152557 934.0000035762787 L 629.0000007152557 934.0000035762787 A 8 8 0 0 1 637.0000007152557 926.0000035762787 L 903.0000007152557 926.0000035762787 Z" fill-opacity="1" stroke-opacity="1" stroke-miterlimit="10" stroke-width="5"/><text fill="rgb(0,0,0)" stroke="none" font-family="Avenir, Helvetica, Arial, sans-serif" font-size="32px" font-style="normal" font-weight="bold" text-decoration="normal" x="903.0000007152557" y="981.0000035762787" text-anchor="middle" dominant-baseline="text-after-edge" fill-opacity="1">require_lowercase_characters</text><path fill="rgb(40,167,69)" stroke="none" paint-order="stroke fill markers" d=" M 2106.0000014305115 461 L 2372.0000014305115 461 L 2372.0000014305115 461 A 8 8 0 0 1 2380.0000014305115 469 L 2380.0000014305115 531 L 2380.0000014305115 531 A 8 8 0 0 1 2372.0000014305115 539 L 1840.0000014305115 539 L 1840.0000014305115 539 A 8 8 0 0 1 1832.0000014305115 531 L 1832.0000014305115 469 L 1832.0000014305115 469 A 8 8 0 0 1 1840.0000014305115 461 L 2106.0000014305115 461 Z" fill-opacity="1"/><text fill="rgb(255,255,255)" stroke="none" font-family="Avenir, Helvetica, Arial, sans-serif" font-size="32px" font-style="normal" font-weight="bold" text-decoration="normal" x="2106.0000014305115" y="516" text-anchor="middle" dominant-baseline="text-after-edge" fill-opacity="1">default[0]</text><path fill="rgb(40,167,69)" stroke="none" paint-order="stroke fill markers" d=" M 2106.0000014305115 989.4000007152558 L 2372.0000014305115 989.4000007152558 L 2372.0000014305115 989.4000007152558 A 8 8 0 0 1 2380.0000014305115 997.4000007152558 L 2380.0000014305115 1059.4000007152558 L 2380.0000014305115 1059.4000007152558 A 8 8 0 0 1 2372.0000014305115 1067.4000007152558 L 1840.0000014305115 1067.4000007152558 L 1840.0000014305115 1067.4000007152558 A 8 8 0 0 1 1832.0000014305115 1059.4000007152558 L 1832.0000014305115 997.4000007152558 L 1832.0000014305115 997.4000007152558 A 8 8 0 0 1 1840.0000014305115 989.4000007152558 L 2106.0000014305115 989.4000007152558 Z" fill-opacity="1"/><text fill="rgb(255,255,255)" stroke="none" font-family="Avenir, Helvetica, Arial, sans-serif" font-size="32px" font-style="normal" font-weight="bold" text-decoration="normal" x="2106.0000014305115" y="1044.4000007152558" text-anchor="middle" dominant-baseline="text-after-edge" fill-opacity="1">default[0]</text><g transform="scale(10,10) translate(-28.1,-6.320000000000005)"/></g></svg>